<svg id="Layer_1" data-name="Layer 1" xmlns="http://www.w3.org/2000/svg" xmlns:xlink="http://www.w3.org/1999/xlink" viewBox="0 0 757.82 475.84"><defs><style>.cls-1,.cls-2,.cls-3{stroke:#000;}.cls-1{stroke-miterlimit:10;stroke-width:2px;fill:url(#linear-gradient);}.cls-2{fill:none;}.cls-2,.cls-3{stroke-linecap:round;stroke-linejoin:round;stroke-width:4px;}.cls-3{fill:url(#linear-gradient-2);}</style><linearGradient id="linear-gradient" x1="345.92" y1="296.14" x2="345.92" y2="296.14" gradientTransform="translate(627.16 421.34) rotate(180)" gradientUnits="userSpaceOnUse"><stop offset="0" stop-color="#2aeaff" stop-opacity="0.86"/><stop offset="0.09" stop-color="#2ae8ff" stop-opacity="0.83"/><stop offset="0.23" stop-color="#2ae1ff" stop-opacity="0.76"/><stop offset="0.37" stop-color="#2ad8ff" stop-opacity="0.67"/><stop offset="0.47" stop-color="#26bded" stop-opacity="0.75"/><stop offset="0.73" stop-color="#1f88c9" stop-opacity="0.91"/><stop offset="0.92" stop-color="#1c75bc" stop-opacity="0.97"/></linearGradient><linearGradient id="linear-gradient-2" x1="218.56" y1="296.14" x2="218.56" y2="296.14" gradientTransform="matrix(1, 0, 0, -1, 113.15, 421.34)" xlink:href="#linear-gradient"/></defs><path class="cls-1" d="M281.24,125.21" transform="translate(-12.31 -89.3)"/><path class="cls-2" d="M291.79,114.19s.31-23.28-21.22-22.88-23.44,20.28-23.44,20.28-37.27-8.16-26.68,28.84c0,0-11.39-2.62-19.66,10s1.52,20.95.42,22.67-18.94,13-3,27.27c-17,3.09-5.52,31.29,3.56,31.69-9,5.27.56,30.6,18.13,30.28-3.43,6-1.1,36.22,32.49,28.76.67-.15,2-.49,2-.49,23.9,21.45,50-12.38,36.61-32.82,9.83-14.17,12.83-25.39,6.53-36.06,0,0,10.33-22.83-.62-33.38,8.76-8,5.17-31.42-.66-35.48,5.13-10.93,7.63-26.48-4.48-38.68,0,0-6-2.49-11.38,6.14" transform="translate(-12.31 -89.3)"/><path class="cls-2" d="M262,282.3a15.07,15.07,0,0,1-9.67,8.8" transform="translate(-12.31 -89.3)"/><path class="cls-2" d="M230.08,250.87s-2.06,11.51-10.21,11.47" transform="translate(-12.31 -89.3)"/><path class="cls-2" d="M217.33,231s-11-1.78-15.59,1.07" transform="translate(-12.31 -89.3)"/><path class="cls-2" d="M227.06,153.81s2.35-9.09-6.61-13.38" transform="translate(-12.31 -89.3)"/><path class="cls-2" d="M217.33,173.38s-11.4-2.48-16.12-.28" transform="translate(-12.31 -89.3)"/><path class="cls-2" d="M212,193.66s-.84,11.11-13.85,6.71" transform="translate(-12.31 -89.3)"/><path class="cls-2" d="M257.43,129s-2-10.73-10.3-17.37" transform="translate(-12.31 -89.3)"/><path class="cls-2" d="M281.24,253.23s7.81.57,9.78,4.56" transform="translate(-12.31 -89.3)"/><path class="cls-2" d="M284.32,223s6-6.83,13.23-1.3" transform="translate(-12.31 -89.3)"/><path class="cls-2" d="M278.67,191.23s10.74-8.76,18.26-2.88" transform="translate(-12.31 -89.3)"/><path class="cls-2" d="M281.24,156.47s5.85-10.52,15-3.6" transform="translate(-12.31 -89.3)"/><path class="cls-2" d="M243.06,276.5s5.94-12.37,15.34-8.66" transform="translate(-12.31 -89.3)"/><path class="cls-2" d="M248.67,269.49s-5.07-4.23-2.8-13.57" transform="translate(-12.31 -89.3)"/><path class="cls-2" d="M272.9,232.61s1.27-16.83-12.38-22.55" transform="translate(-12.31 -89.3)"/><path class="cls-2" d="M258.4,230.57a17.74,17.74,0,0,1,11.44-12" transform="translate(-12.31 -89.3)"/><path class="cls-2" d="M225.58,232.61s24.14-10.8,7.94-30.49" transform="translate(-12.31 -89.3)"/><path class="cls-2" d="M255.34,176.76s-11.15-29.87,17.37-33.37" transform="translate(-12.31 -89.3)"/><path class="cls-2" d="M244.19,142.29s-3.44,14.19,9.19,18.71" transform="translate(-12.31 -89.3)"/><path class="cls-2" d="M245.87,185.94s-4.56-13.55-21.3-6.43" transform="translate(-12.31 -89.3)"/><path class="cls-3" d="M331.71,125.21" transform="translate(-12.31 -89.3)"/><path class="cls-2" d="M321.16,114.19s-.31-23.28,21.22-22.88,23.44,20.28,23.44,20.28,37.27-8.16,26.68,28.84c0,0,11.39-2.62,19.66,10s-1.52,20.95-.42,22.67,18.94,13,3,27.27c17,3.09,5.52,31.29-3.56,31.69,9,5.27-.56,30.6-18.13,30.28,3.42,6,1.1,36.22-32.49,28.76-.67-.15-2-.49-2-.49-23.9,21.45-50-12.38-36.61-32.82-9.83-14.17-12.83-25.39-6.53-36.06,0,0-10.33-22.83.62-33.38-8.76-8-5.17-31.42.66-35.48-5.13-10.93-7.63-26.48,4.48-38.68,0,0,5.95-2.49,11.38,6.14" transform="translate(-12.31 -89.3)"/><path class="cls-2" d="M350.92,282.3a15.07,15.07,0,0,0,9.67,8.8" transform="translate(-12.31 -89.3)"/><path class="cls-2" d="M382.87,250.87s2.06,11.51,10.21,11.47" transform="translate(-12.31 -89.3)"/><path class="cls-2" d="M395.62,231s11-1.78,15.59,1.07" transform="translate(-12.31 -89.3)"/><path class="cls-2" d="M385.89,153.81s-2.35-9.09,6.61-13.38" transform="translate(-12.31 -89.3)"/><path class="cls-2" d="M395.62,173.38s11.4-2.48,16.12-.28" transform="translate(-12.31 -89.3)"/><path class="cls-2" d="M400.92,193.66s.84,11.11,13.85,6.71" transform="translate(-12.31 -89.3)"/><path class="cls-2" d="M355.52,129s2-10.73,10.3-17.37" transform="translate(-12.31 -89.3)"/><path class="cls-2" d="M331.71,253.23s-7.81.57-9.78,4.56" transform="translate(-12.31 -89.3)"/><path class="cls-2" d="M328.63,223s-6-6.83-13.23-1.3" transform="translate(-12.31 -89.3)"/><path class="cls-2" d="M334.28,191.23s-10.74-8.76-18.26-2.88" transform="translate(-12.31 -89.3)"/><path class="cls-2" d="M331.71,156.47s-5.85-10.52-15-3.6" transform="translate(-12.31 -89.3)"/><path class="cls-2" d="M369.89,276.5s-5.94-12.37-15.35-8.66" transform="translate(-12.31 -89.3)"/><path class="cls-2" d="M364.28,269.49s5.07-4.23,2.8-13.57" transform="translate(-12.31 -89.3)"/><path class="cls-2" d="M340,232.61s-1.27-16.83,12.39-22.55" transform="translate(-12.31 -89.3)"/><path class="cls-2" d="M354.54,230.57a17.74,17.74,0,0,0-11.43-12" transform="translate(-12.31 -89.3)"/><path class="cls-2" d="M387.37,232.61s-24.14-10.8-7.94-30.49" transform="translate(-12.31 -89.3)"/><path class="cls-2" d="M357.6,176.76s11.16-29.87-17.36-33.37" transform="translate(-12.31 -89.3)"/><path class="cls-2" d="M368.76,142.29s3.44,14.19-9.19,18.71" transform="translate(-12.31 -89.3)"/><path class="cls-2" d="M367.08,185.94s4.56-13.55,21.3-6.43" transform="translate(-12.31 -89.3)"/><path d="M93.05,301.38q-27.35,0-45.25-11.23a68.54,68.54,0,0,1-26.7-31.09q-8.79-19.86-8.79-45.25,0-25.71,9.28-45.42A72.89,72.89,0,0,1,48.77,137.3q17.91-11.39,43.95-11.39,20.19,0,34.68,7.65a70.18,70.18,0,0,1,23.92,20.35A84.34,84.34,0,0,1,165,181.74a97.53,97.53,0,0,1,3.58,30.44c-.22,1.95-.38,3.91-.49,5.86s-.28,3.91-.49,5.86H40.31a72,72,0,0,0,7.49,27A47.22,47.22,0,0,0,65.38,270q11.39,7,28.32,7a71.57,71.57,0,0,0,17.09-2.11,43,43,0,0,0,15.63-7.33,28.06,28.06,0,0,0,9.93-14h28.32q-3.9,16.6-14.65,27.19a66.22,66.22,0,0,1-25.72,15.62A97,97,0,0,1,93.05,301.38ZM41,199.81h99.29q-.31-14.66-6.51-25.72A44.91,44.91,0,0,0,117,156.84q-10.59-6.18-25.23-6.19-16,0-26.86,6.84a46.61,46.61,0,0,0-16.77,17.9A65.33,65.33,0,0,0,41,199.81Z" transform="translate(-12.31 -89.3)"/><path d="M519.43,301.38a125,125,0,0,1-23.6-2.28,76.41,76.41,0,0,1-22.14-7.81,50.33,50.33,0,0,1-17.09-15q-6.84-9.44-8.79-23.44h28A30.06,30.06,0,0,0,486.39,267a46.56,46.56,0,0,0,16.6,7.65A74.35,74.35,0,0,0,520.73,277q5.21,0,12-.65A49.35,49.35,0,0,0,546,273.22a24.92,24.92,0,0,0,10.42-7.32q4.07-4.89,4.07-13.68a18.46,18.46,0,0,0-2.93-10.74,22.55,22.55,0,0,0-8.14-7,42.74,42.74,0,0,0-12.69-4.07q-15.32-3.25-32.72-6.18a86,86,0,0,1-30.77-11.07,49.57,49.57,0,0,1-8.3-6.68,37.34,37.34,0,0,1-6.35-8.46,44.16,44.16,0,0,1-4.07-10.42A50.57,50.57,0,0,1,453,175.07q0-12.7,5-22a42.59,42.59,0,0,1,14.17-15.3,66.67,66.67,0,0,1,21-8.95,106.75,106.75,0,0,1,25.56-2.93,81.86,81.86,0,0,1,30.44,5.37,56.1,56.1,0,0,1,22.3,15.63q8.79,10.25,10.42,25.23H556.22q-2.28-9.45-12.37-15.47t-25.72-6a97.77,97.77,0,0,0-11.72.81A47.38,47.38,0,0,0,494,154.72a25,25,0,0,0-9.77,7.16q-3.9,4.73-3.9,12.54a19.17,19.17,0,0,0,3.74,12,25.61,25.61,0,0,0,10.58,7.81,87.81,87.81,0,0,0,15.63,4.89q11.38,2.28,25.06,4.72a161.51,161.51,0,0,1,21.49,5A50.23,50.23,0,0,1,574.29,218a36.52,36.52,0,0,1,10.41,14,48.45,48.45,0,0,1,3.42,18.88q0,15.3-6,25.07A42.88,42.88,0,0,1,566,291.29a74.35,74.35,0,0,1-22.31,7.81A131.76,131.76,0,0,1,519.43,301.38Z" transform="translate(-12.31 -89.3)"/><path d="M694.9,376.26a132,132,0,0,1-38.25-5.54,83.06,83.06,0,0,1-33-19.2l12-21.82a109.52,109.52,0,0,0,27.18,16,80.57,80.57,0,0,0,30.44,5.86q26.7,0,38.25-15.47t11.56-39.23V276.31a49.55,49.55,0,0,1-14.81,14.49,67.9,67.9,0,0,1-19.7,8.46A88.12,88.12,0,0,1,686.44,302q-25.4,0-40.05-10.09t-20.83-28q-6.19-17.9-6.19-41.34V127.86H647v86.92a176.78,176.78,0,0,0,1.47,23,61.84,61.84,0,0,0,6,20.18,35.29,35.29,0,0,0,13.35,14.32q8.79,5.38,23.44,5.38,18.55,0,29.79-9.12t16.27-24.42a107.38,107.38,0,0,0,5-33.85V127.86H770.1V299.43q0,18.56-4.88,32.88a61.61,61.61,0,0,1-14.65,24.09A63.86,63.86,0,0,1,727,371.21Q713.13,376.25,694.9,376.26Z" transform="translate(-12.31 -89.3)"/><path d="M338.78,565.14a80.52,80.52,0,0,1-21.64-2.77,63.71,63.71,0,0,1-17.91-8,64.53,64.53,0,0,1-13.84-12l-1.3,20.84H257.72V333h27.67v83.34q8.48-13,24.26-19.86A80.85,80.85,0,0,1,342,389.67q26,0,42.65,11.56a68.36,68.36,0,0,1,24.58,31.25q8,19.69,8,44.44,0,24.4-8.46,44.43a71.81,71.81,0,0,1-25.72,31.91Q365.8,565.14,338.78,565.14Zm-.32-24.42q18.87,0,30-8.62a48.89,48.89,0,0,0,16.11-23,94.36,94.36,0,0,0,5.05-31.58,95.46,95.46,0,0,0-5.05-31.91,47,47,0,0,0-16.44-22.78q-11.4-8.47-30.27-8.47-16.94,0-28.81,9.44a60,60,0,0,0-18.07,24.09,76.23,76.23,0,0,0-6.19,29.95,87.41,87.41,0,0,0,5.37,30.93,49.84,49.84,0,0,0,17.26,23.11Q319.25,540.72,338.46,540.72Z" transform="translate(-12.31 -89.3)"/><path d="M504.49,565.14a82.59,82.59,0,0,1-22.63-3.09,60.35,60.35,0,0,1-19.53-9.44,46.22,46.22,0,0,1-13.68-16,47.33,47.33,0,0,1-5-22.31q0-14.64,5.37-24.74a42.08,42.08,0,0,1,14.49-15.95,63.56,63.56,0,0,1,21.16-8.46,118,118,0,0,1,25.07-2.61h50.45q0-14.64-4.06-25.39a34,34,0,0,0-13.19-16.77q-9.12-6-24.09-6a69.79,69.79,0,0,0-16.93,1.95,36.25,36.25,0,0,0-13.35,6.19,24.51,24.51,0,0,0-8.14,11.39H450.77a45.15,45.15,0,0,1,9-20A55.34,55.34,0,0,1,476,400.25a79.46,79.46,0,0,1,20.67-8,96.73,96.73,0,0,1,22.14-2.6q37.11,0,52.74,21.81t15.63,58.93v92.78H564.06l-1.63-21.81a49.31,49.31,0,0,1-17.25,15,70.29,70.29,0,0,1-20.67,7A120.68,120.68,0,0,1,504.49,565.14Zm2.6-24.42q16.28,0,28.16-5.37a41,41,0,0,0,18.39-15.79q6.51-10.41,6.51-25.39v-8.46H529.88q-10.74,0-21.16.32a82.65,82.65,0,0,0-18.88,2.61,27.36,27.36,0,0,0-13.51,7.81q-5.06,5.54-5.05,15.95,0,9.76,5.05,16a30.48,30.48,0,0,0,13.34,9.28A49.32,49.32,0,0,0,507.09,540.72Z" transform="translate(-12.31 -89.3)"/><path d="M698.51,565.14q-27,0-44.76-11.23a67.86,67.86,0,0,1-26.37-31.09q-8.62-19.86-8.63-44.93,0-24.4,9-44.43a72.38,72.38,0,0,1,27.34-31.91q18.39-11.88,46.72-11.88,17.58,0,31.41,5.86a58.24,58.24,0,0,1,23,17.09q9.12,11.24,12.7,28.16H740.51q-4.89-14.32-15.47-20.35t-24.9-6q-19.53,0-31.25,9.12a52.12,52.12,0,0,0-17.09,23.6,87.56,87.56,0,0,0-5.38,30.76A86,86,0,0,0,652,509.15a50.3,50.3,0,0,0,17.25,23q11.73,8.63,30.28,8.62a59,59,0,0,0,25.88-5.86Q737.58,529,741.49,514h28.64q-3.25,17.58-13.83,29a63.51,63.51,0,0,1-25.72,16.77A95.24,95.24,0,0,1,698.51,565.14Z" transform="translate(-12.31 -89.3)"/></svg>